<svg width="15" height="15" viewBox="0 0 15 15" fill="none" xmlns="http://www.w3.org/2000/svg">
<path d="M12.1398 5.92041H6.91977C6.27912 5.92041 5.75977 6.43976 5.75977 7.08041V12.3004C5.75977 12.9411 6.27912 13.4604 6.91977 13.4604H12.1398C12.7804 13.4604 13.2998 12.9411 13.2998 12.3004V7.08041C13.2998 6.43976 12.7804 5.92041 12.1398 5.92041Z" stroke="#50555C" stroke-linecap="round" stroke-linejoin="round"/>
<path d="M3.43922 9.40035H2.85922C2.55157 9.40035 2.25652 9.27814 2.03897 9.0606C1.82143 8.84305 1.69922 8.548 1.69922 8.24035V3.02035C1.69922 2.7127 1.82143 2.41765 2.03897 2.20011C2.25652 1.98257 2.55157 1.86035 2.85922 1.86035H8.07922C8.38687 1.86035 8.68192 1.98257 8.89946 2.20011C9.117 2.41765 9.23922 2.7127 9.23922 3.02035V3.60035" stroke="#50555C" stroke-linecap="round" stroke-linejoin="round"/>
</svg>
